<?xml version="1.0" encoding="UTF-8"?>
<!DOCTYPE svg PUBLIC "-//W3C//DTD SVG 1.1//EN" "http://www.w3.org/Graphics/SVG/1.1/DTD/svg11.dtd">
<!-- Creator: CorelDRAW -->
<svg xmlns="http://www.w3.org/2000/svg" xml:space="preserve" width="123.5mm" height="53.9791mm" version="1.1" style="shape-rendering:geometricPrecision; text-rendering:geometricPrecision; image-rendering:optimizeQuality; fill-rule:evenodd; clip-rule:evenodd"
viewBox="0 0 5456.98 2385.12"
 xmlns:xlink="http://www.w3.org/1999/xlink"
 xmlns:xodm="http://www.corel.com/coreldraw/odm/2003">
 <defs>
  <style type="text/css">
   <![CDATA[
    .fil3 {fill:#149EA1}
    .fil2 {fill:#006163}
    .fil1 {fill:#149EA1;fill-rule:nonzero}
    .fil0 {fill:#006163;fill-rule:nonzero}
   ]]>
  </style>
 </defs>
 <g id="Vrstva_x0020_1">
  <metadata id="CorelCorpID_0Corel-Layer"/>
  <g id="_105553281318624">
   <polygon class="fil0" points="-0,1144.14 971.7,1144.14 971.7,996.28 1448.19,578.94 1714.36,736.67 1425.19,470.5 751.53,1068.58 -0,1123.61 "/>
   <g>
    <polygon class="fil1" points="3408.43,387.79 3637.04,387.79 3640.92,389.86 3640.92,620.28 3408.43,620.28 "/>
    <polygon class="fil1" points="3927.69,542.59 3927.69,620.28 3695.2,620.28 3695.2,418.77 "/>
    <polygon class="fil1" points="3408.43,666.8 3640.92,666.8 3640.92,899.29 3408.43,899.29 "/>
    <polygon class="fil1" points="3695.2,666.8 3927.69,666.8 3927.69,899.29 3695.2,899.29 "/>
   </g>
   <path class="fil2" d="M5050.74 2013.29c-2.65,-13.08 -30.55,-80.28 -37.64,-98.49l-150.48 -384.19c-22.23,-56.46 -23.31,-36.75 14.94,-83.22 14.75,-17.93 114.39,-138.35 118.9,-147.7l-100.34 0.45c-6.01,5.82 -13.63,15.45 -20.38,23.23l-94.96 108.83c-14.36,15.62 -23.69,29.2 -37.65,43.74 -23.56,24.54 -57.84,68.78 -76.94,88.54 -14.44,14.94 -66.21,80.89 -77.65,87.26l-0.1 -674.76c-26.66,-2.43 -218.78,-0.91 -260.49,-0.8l-22.21 0.12c-1.21,344.98 1.82,692.32 -0.11,1036.89l282.83 -1.01 0.03 -215.37c0,-24.16 9.96,-29.3 20.56,-44.93 5.31,-7.82 21.29,-32.08 28.97,-37.39l107.06 298.35c100.75,1.7 204.77,-0.9 305.66,0.44z"/>
   <path class="fil2" d="M3694.27 1614.75c-4.24,-116.73 3.86,-304.72 130.32,-300.18 128.97,4.63 132.59,178.24 126.2,300.33l-256.52 -0.15zm548.98 70.11c-0.52,-58.04 -8.09,-117.51 -27.04,-167.05 -15.87,-41.49 -40.39,-87.56 -71.03,-118.39 -58.12,-58.48 -152.52,-104.09 -270.6,-109.51 -111.95,-5.13 -235.5,10.44 -314.32,65.35 -10.31,7.18 -19.38,11.54 -28.45,19.38 -9.04,7.81 -18.52,15.96 -25.04,22.86 -50.41,53.25 -82.91,110.94 -93.49,192.01 -21.49,164.67 27.42,320.71 169.27,391.79 142.12,71.21 337.14,70.94 477.72,12.88 51.12,-21.12 93.32,-58.41 121.72,-91.62 3.93,-4.6 5.55,-8.31 9.71,-14.29 19.6,-28.16 39.49,-60.68 46.15,-96.19l-285.64 0.53c-11.44,52.09 -26.8,109.33 -46.28,155.15 -4.02,9.45 -12.73,24.82 -17.56,32.8 -25.01,41.38 -65.45,33.21 -98.42,9.01 -30.48,-22.38 -56.22,-77.43 -70.53,-128.38 -11.41,-40.64 -26.55,-132.02 -21.3,-176.31l545.14 0z"/>
   <path class="fil2" d="M5008.43 1385.74c15.82,0 58.5,-3.23 69.33,1.41 3,4.99 0.97,-1.06 2.01,7.06l0.08 249.17c0,69.68 -7.58,181.95 16.6,240.74 56.09,136.32 226.24,153.74 360.54,154.95l-0.02 -110.69c-112.55,-13.79 -95.81,-118.79 -95.81,-225.07 -0,-105.06 -1.64,-212.76 1.66,-317.53l83.48 -0.06c2.06,-12.2 2.54,-70.74 -0.49,-81.24l-83.05 -0.02 -0.23 -176.98 -282.63 99.88 -0.46 77.06 -71.11 0.1 0.1 81.22z"/>
   <g>
    <path class="fil2" d="M419.63 1363.18c125.6,-22.06 168.37,172.45 172.65,288.73 2.63,71.37 -4.26,143.73 -29,203.21 -23.43,56.32 -55.91,96.68 -113.37,116.77 -73.87,25.83 -138.85,1.39 -160.2,-55.38 -12.43,-33.05 -6.8,-179.75 -6.8,-226.24 0,-43.98 -5.62,-196.94 6.57,-226.41 17.37,-42.03 74.13,-90.84 130.16,-100.68zm-136.72 650.28c17.9,4.23 32.3,10.16 51.37,14.27 54.47,11.72 115.88,16.05 172.01,10.15 397.11,-41.71 464.43,-454.17 244.92,-642.77 -96.25,-82.69 -276.43,-117.67 -389.55,-74.82 -45.45,17.22 -52.82,32.22 -78.6,46.04l-0.75 -58.9 -282.31 -0.07 0.4 1077.75 282.49 -0.31 0.02 -371.34z"/>
    <path class="fil2" d="M1888.92 1319.89c164.05,-46.08 179.17,699.67 10.18,687.64 -171.2,-12.18 -173.35,-641.81 -10.18,-687.64zm428.6 391.96c16.83,-109.13 -22.13,-228.91 -91.58,-302.81 -141.6,-150.7 -446.42,-151.02 -600.71,-45.42 -142.43,97.48 -179.8,270.33 -130.02,428.6 16.61,52.8 41.53,85.29 74.76,124.13 13.57,15.85 35.48,31.47 54.9,45.91 13.71,10.2 44.31,25.86 64.17,33.98 154.56,63.22 351.78,54.99 482.29,-33.77 90.71,-61.69 129.26,-140.86 146.19,-250.63z"/>
    <path class="fil2" d="M1510.71 1301.91c-19.57,-11.75 -72.09,-12.85 -98.3,-12.09 -66.36,1.91 -123.27,36.67 -160.94,85.95 -12.63,16.53 -24.76,43.25 -30.17,48.93 -0.02,-36.27 1.44,-83.33 -0.96,-117.29l-281.63 0.47 -0.44 706.59 283.05 0.04c-0.94,-127.72 -0.76,-256.44 0.11,-384.17 0.4,-58.66 0.53,-123.39 36.39,-154.64 21.62,-18.84 77.88,-28.23 110.07,2.65 10.55,10.12 8.59,10.02 15.3,20.6l5.62 7.47 121.9 -204.51z"/>
   </g>
   <g>
    <path class="fil3" d="M2384.59 997.38c51.08,83.73 107.66,57.91 215.97,64.2 -6.81,11.87 -20,25.83 -29.5,38.11 -17.37,22.44 -20.27,12.94 -19.95,49.66l2.51 715.61c0.59,90.63 3.87,185.7 1.6,275.81 -1.35,53.82 -35.92,51.68 -85.57,51.68 -46.47,-0 -92.99,-0.22 -139.6,0.04l1.58 189.24c24.44,5.46 149.41,3.01 181.18,1.71 56.41,-2.31 106.86,-8.81 151.35,-31.53 110.5,-56.43 92.76,-155.98 92.15,-266.3l-3.52 -1108.14c-0.18,-28.97 -2.67,-161.74 -0.17,-179.24l30.76 0.06 -1.06 -148.02 -397.73 347.13z"/>
    <path class="fil3" d="M2883.83 568.99c51.08,83.73 107.65,57.91 215.97,64.2 -6.81,11.87 -20.01,25.83 -29.5,38.11 -17.37,22.44 -20.27,12.94 -19.95,49.66l2.51 1144c0.59,90.63 3.87,185.7 1.6,275.81 -1.35,53.82 -35.91,51.68 -85.57,51.68 -46.47,-0 -92.99,-0.22 -139.6,0.04l1.58 189.24c24.44,5.46 149.41,3.01 181.18,1.71 56.41,-2.31 106.86,-8.81 151.35,-31.53 110.5,-56.43 92.76,-155.98 92.15,-266.3l-3.52 -1536.53c-0.18,-28.97 -2.67,-161.74 -0.17,-179.24l30.76 0.06 -1.06 -148.02 -397.73 347.13z"/>
   </g>
   <path class="fil0" d="M1458.05 424.49l719.66 653.93 1105.51 -938.21 1025.5 546.2 0 213.62 1055.68 0 0 -38.54 -694.21 -43.6c-430.08,-258.26 -961.32,-559 -1390.78,-817.89l-815.81 500.07 0 111.72 -282.61 233.34 -65.72 -161.04 -657.23 -259.6z"/>
  </g>
 </g>
</svg>
